<svg xmlns="http://www.w3.org/2000/svg" version="1.1" xmlns:xlink="http://www.w3.org/1999/xlink" xmlns:svgjs="http://svgjs.com/svgjs" width="800" height="800"><svg version="1.2" id="SvgjsSvg1020" x="0px" y="0px" viewBox="0 0 799.99997 799.99999" overflow="scroll" xml:space="preserve" sodipodi:docname="digital.austria_quadrat.svg" width="800" height="800" inkscape:export-filename="digital.austria_quadrat.png" inkscape:export-xdpi="96" inkscape:export-ydpi="96" inkscape:version="1.2.2 (732a01da63, 2022-12-09)" xmlns:inkscape="http://www.inkscape.org/namespaces/inkscape" xmlns:sodipodi="http://sodipodi.sourceforge.net/DTD/sodipodi-0.dtd" xmlns="http://www.w3.org/2000/svg" xmlns:svg="http://www.w3.org/2000/svg"><defs id="SvgjsDefs1019"></defs><sodipodi:namedview id="SvgjsSodipodi:namedview1018" pagecolor="#ffffff" bordercolor="#000000" borderopacity="0.25" inkscape:showpageshadow="2" inkscape:pageopacity="0.0" inkscape:pagecheckerboard="true" inkscape:deskcolor="#d1d1d1" showgrid="false" inkscape:zoom="0.5" inkscape:cx="810" inkscape:cy="400" inkscape:window-width="1920" inkscape:window-height="1129" inkscape:window-x="-8" inkscape:window-y="-8" inkscape:window-maximized="1" inkscape:current-layer="Layer_2"></sodipodi:namedview>
<g id="SvgjsG1017" transform="translate(-308.65002,-366.44981)"><g id="SvgjsG1016" inkscape:label="digital" transform="translate(321.25002)"><path d="M 189.8,752.2 H 99.7 V 691.1 L 118,675.8 h 39.6 v -30.5 h 32.1 v 106.9 z m -32.2,-22.9 v -32.1 h -24.4 v 32.1 z" id="SvgjsPath1015"></path><path d="M 242,665.1 H 209.9 V 649.8 H 242 Z m 0,87.1 H 209.9 V 675.8 H 242 Z" id="SvgjsPath1014"></path><path d="m 351.7,772 h -88.3 v -19.9 h 56.2 V 740.6 H 279.9 L 261.6,725.4 V 691 l 18.3,-15.3 h 71.8 z m -32.1,-51.1 v -23.8 h -24.4 v 23.8 z" id="SvgjsPath1013"></path><path d="m 403.9,665.1 h -32.1 v -15.3 h 32.1 z m 0,87.1 h -32.1 v -76.4 h 32.1 z" id="SvgjsPath1012"></path><path d="m 479.3,752.2 h -54.9 v -62.6 h -8.6 v -13.8 h 8.6 v -22.9 h 32 v 22.9 h 21.4 v 13.8 h -21.4 v 39.7 h 22.9 z" id="SvgjsPath1011"></path><path d="M 583,752.2 H 488.9 V 714 l 18.3,-7.6 H 550 v -9.2 h -57.7 v -21.4 h 72.4 l 18.3,15.3 z m -33,-22.9 v -10 h -30.5 v 10 z" id="SvgjsPath1010"></path><path d="M 631.1,752.2 H 602.8 V 645.3 h 28.3 z" id="SvgjsPath1009"></path><path d="m 675.1,752.2 h -23.3 v -22.9 h 23.3 z" id="SvgjsPath1008"></path></g><g id="SvgjsG1007" inkscape:label="austria" transform="translate(-297.84998,135.39963)"><path fill="#e62d3b" d="M 789.5,752.2 H 695.4 V 714 l 18.3,-7.6 h 42.8 v -9.2 h -57.7 v -21.4 h 72.4 l 18.3,15.3 z m -33,-22.9 v -10 H 726 v 10 z" id="SvgjsPath1006"></path><path fill="#e62d3b" d="m 897,752.2 h -88 v -76.4 h 30.6 v 53.5 h 24.9 V 675.8 H 897 Z" id="SvgjsPath1005"></path><path fill="#e62d3b" d="m 1014.9,741.2 -18.3,11 h -79.3 v -22.9 h 61.1 v -10 H 918 v -28.2 l 18.3,-15.3 h 77.7 v 21.4 h -60.2 v 9.2 h 61.1 z" id="SvgjsPath1004"></path><path fill="#e62d3b" d="m 1090,752.2 h -54.9 v -62.6 h -8.6 v -13.8 h 8.6 v -22.9 h 32 v 22.9 h 21.4 v 13.8 h -21.4 v 39.7 h 22.9 z" id="SvgjsPath1003"></path><path fill="#e62d3b" d="m 1160,697.2 h -30.1 v 55 h -30.5 v -61.1 l 18.3,-15.3 h 42.2 v 21.4 z" id="SvgjsPath1002"></path><path fill="#e62d3b" d="m 1203.5,665.1 h -32.1 v -15.3 h 32.1 z m 0,87.1 h -32.1 v -76.4 h 32.1 z" id="SvgjsPath1001"></path><path fill="#e62d3b" d="m 1317.6,752.2 h -94.1 V 714 l 18.3,-7.6 h 42.8 v -9.2 h -57.7 v -21.4 h 72.4 l 18.3,15.3 z m -33,-22.9 v -10 h -30.5 v 10 z" id="SvgjsPath1000"></path></g></g>
</svg><style>@media (prefers-color-scheme: light) { :root { filter: none; } }
</style></svg>