<?xml version="1.0" standalone="no"?>
<!DOCTYPE svg PUBLIC "-//W3C//DTD SVG 20010904//EN"
 "http://www.w3.org/TR/2001/REC-SVG-20010904/DTD/svg10.dtd">
<svg version="1.0" xmlns="http://www.w3.org/2000/svg"
 width="800.000000pt" height="800.000000pt" viewBox="0 0 800.000000 800.000000"
 preserveAspectRatio="xMidYMid meet">
<metadata>
Created by potrace 1.14, written by Peter Selinger 2001-2017
</metadata>
<g transform="translate(0.000000,800.000000) scale(0.100000,-0.100000)"
fill="#000000" stroke="none">
<path d="M1700 5060 c0 -149 0 -150 -22 -151 -13 -1 -101 -1 -196 -1 l-174 0
-92 -77 -92 -76 0 -305 1 -305 448 -1 c326 -1 447 1 448 10 3 40 4 1033 1
1044 -3 9 -45 12 -163 12 l-159 0 0 -150z m-2 -529 l2 -161 -120 0 -120 0 -1
33 c-1 39 -1 128 0 219 l1 67 38 3 c20 2 73 2 117 1 l80 -1 3 -161z"/>
<path d="M6157 5203 c-2 -5 -3 -244 -3 -533 l1 -525 141 -1 141 -2 0 534 0
534 -138 0 c-76 0 -140 -3 -142 -7z"/>
<path d="M2226 5161 c-2 -6 0 -128 3 -142 0 -3 72 -6 159 -6 l158 1 0 76 0 77
-158 0 c-87 0 -160 -3 -162 -6z"/>
<path d="M3849 5166 c-1 0 -3 -35 -4 -76 l-2 -76 159 -1 c87 0 159 2 159 6 4
18 5 128 2 137 -3 7 -57 11 -158 11 -85 0 -156 0 -156 -1z"/>
<path d="M4370 5023 c0 -123 4 -115 -60 -115 -25 -1 -26 -3 -26 -69 l0 -69 43
0 43 0 0 -314 0 -314 273 1 272 2 3 113 3 112 -116 0 -115 0 0 201 0 200 100
-2 c56 -1 104 2 108 5 11 11 8 125 -3 130 -5 2 -54 3 -108 2 l-97 -1 0 115 0
116 -160 0 -160 -1 0 -112z"/>
<path d="M2227 4901 c-2 -3 -3 -175 -3 -381 l1 -375 160 0 160 0 0 380 0 380
-158 1 c-86 1 -159 -1 -160 -5z"/>
<path d="M2909 4892 c-13 -9 -29 -21 -35 -27 -6 -5 -33 -28 -59 -50 -27 -22
-54 -46 -62 -53 -10 -10 -13 -55 -13 -182 l0 -168 83 -68 c45 -37 85 -72 88
-77 4 -5 97 -9 207 -9 224 1 210 6 204 -73 l-4 -42 -266 -1 c-147 0 -273 -1
-280 -1 -10 -1 -12 -25 -10 -98 l3 -98 438 0 c384 0 437 2 438 15 3 46 4 927
1 936 -2 9 -101 12 -356 12 -313 1 -356 -1 -377 -16z m406 -203 c5 -5 8 -93 6
-174 l-1 -60 -114 0 c-63 0 -117 3 -121 7 -8 7 -9 213 -2 225 5 8 224 9 232 2z"/>
<path d="M3846 4536 c0 -204 2 -376 2 -383 2 -8 46 -11 159 -10 l158 2 0 381
0 381 -160 0 -161 0 2 -371z"/>
<path d="M5055 4902 c-3 -3 -5 -52 -5 -109 l0 -103 223 1 c122 0 252 0 288 0
l66 -1 -1 -45 -1 -45 -212 0 c-226 0 -231 -1 -359 -60 l-40 -18 0 -189 1 -188
470 0 470 0 0 305 0 304 -91 76 -90 77 -357 0 c-196 0 -359 -2 -362 -5z m571
-479 l-1 -48 -153 -2 -152 -2 0 49 0 50 154 0 153 0 -1 -47z"/>
<path d="M6646 4263 c1 -60 2 -111 3 -114 0 -4 52 -7 114 -7 l113 -1 0 115 1
114 -116 0 -117 0 2 -107z"/>
<path d="M5650 3738 l0 -78 160 0 160 0 0 78 0 77 -160 0 -160 0 0 -77z"/>
<path d="M4345 3780 l-60 -5 0 -110 c0 -121 5 -111 -63 -114 -22 -1 -23 -4
-20 -68 3 -65 4 -68 28 -69 14 -1 32 -2 40 -3 14 -1 16 -40 15 -311 l0 -310
275 0 276 0 -1 113 0 112 -90 2 c-50 1 -101 2 -115 2 l-25 1 0 192 c0 145 3
194 13 198 6 3 55 5 107 5 l95 -1 0 68 c0 58 -3 68 -17 69 -10 0 -59 1 -108 1
l-90 0 1 109 c1 62 -2 112 -8 115 -13 8 -176 10 -253 4z"/>
<path d="M930 3545 c-4 -5 -7 -54 -7 -107 l0 -98 121 0 c66 -1 196 -1 289 -1
l167 1 0 -45 c0 -25 -3 -45 -7 -45 -5 -1 -105 -2 -223 -4 l-215 -3 -80 -35
-80 -35 -3 -192 -2 -191 470 0 470 0 -1 308 0 307 -92 74 -92 74 -353 1 c-225
1 -357 -3 -362 -9z m570 -476 c0 -27 -3 -49 -7 -50 -49 -4 -268 -3 -281 2 -12
4 -17 18 -17 51 l-1 45 153 0 153 0 0 -48z"/>
<path d="M2060 3552 l-35 -3 0 -379 0 -380 440 0 441 0 0 380 c-1 251 -4 380
-11 381 -16 0 -258 1 -287 0 l-28 -1 0 -265 0 -265 -27 -1 c-40 -1 -174 -1
-200 0 l-23 1 0 268 0 267 -118 0 c-64 0 -133 -1 -152 -3z"/>
<path d="M3344 3552 c-47 -3 -58 -9 -135 -74 -46 -39 -86 -72 -89 -75 -2 -2
-5 -67 -5 -144 0 -118 2 -139 15 -140 8 -1 144 -1 301 -1 l286 -1 2 -48 c1
-34 -2 -49 -11 -50 -7 0 -145 -1 -305 -1 l-293 -1 -1 -53 c0 -30 -1 -70 -1
-89 0 -19 1 -46 1 -60 l1 -25 398 0 398 0 84 52 c47 28 87 53 90 55 2 2 4 80
5 174 0 142 -2 170 -15 174 -8 2 -123 4 -255 4 -132 -1 -263 0 -291 0 l-51 1
-1 45 -1 46 207 -1 c114 0 250 -1 302 0 l96 0 0 105 c-1 86 -4 105 -16 106
-52 2 -674 3 -716 1z"/>
<path d="M5123 3550 c-11 -3 -58 -36 -105 -75 l-87 -70 0 -307 -1 -308 153 0
152 0 -1 267 c0 179 3 270 10 275 6 4 74 8 151 8 l140 0 -1 93 c-1 50 -2 99
-3 107 -1 13 -30 15 -195 15 -107 0 -203 -2 -213 -5z"/>
<path d="M5683 3552 l-33 -3 0 -380 0 -379 160 0 160 0 0 383 0 382 -128 0
c-70 0 -142 -1 -159 -3z"/>
<path d="M6229 3552 c-25 -3 -25 -3 -25 -102 1 -54 4 -101 7 -105 4 -3 133 -6
288 -5 l281 0 0 -45 c0 -25 -3 -45 -7 -46 -5 0 -105 -1 -223 -3 -200 -2 -219
-4 -265 -25 -27 -12 -65 -29 -82 -37 l-33 -15 0 -189 0 -190 470 0 470 0 -1
308 0 307 -91 73 -90 74 -336 1 c-186 1 -348 1 -363 -1z m551 -483 c0 -32 -4
-49 -12 -50 -55 -4 -278 0 -286 5 -7 4 -10 86 -3 92 1 0 69 1 151 1 l150 0 0
-48z"/>
</g>
</svg>
