<svg version="1.1" id="Layer_1" xmlns="http://www.w3.org/2000/svg" xmlns:xlink="http://www.w3.org/1999/xlink" x="0px" y="0px"
	 viewBox="0 0 94 94" style="enable-background:new 0 0 94 94;" xml:space="preserve" width="94" height="94">
<title>waff-resized-logos</title>

<g>
	<path fill="#FF0000" d="M91.2,47.7c-1.3-1.9-2.8-3.6-4.5-5c-1.7-1.5-3.3-2.7-3.6-2.9l-0.4-0.3L80,43.1l0.4,0.3
		c2.3,1.6,4.4,3.5,6.2,5.6c0.1,0.2,0.2,0.4,0.2,0.6c0,0.2-0.1,0.4-0.2,0.6c-1.9,2.1-4,4-6.2,5.6L80,56.1l2.6,3.6l0.4-0.3
		c0.1-0.1,1.8-1.3,3.6-2.9c1.8-1.4,3.3-3.1,4.5-5C92.1,50.3,92.1,48.8,91.2,47.7"/>
	<path fill="#FF0000" d="M79.2,47.7c-1.3-1.9-2.8-3.6-4.5-5c-1.7-1.5-3.3-2.7-3.6-2.9l-0.4-0.3l-2.6,3.6l0.4,0.3
		c2.3,1.6,4.4,3.5,6.2,5.6c0.1,0.2,0.2,0.4,0.2,0.6c0,0.2-0.1,0.4-0.2,0.6c-1.9,2.1-4,4-6.2,5.6l-0.4,0.3l2.6,3.6l0.4-0.3
		c0.1-0.1,1.8-1.3,3.6-2.9c1.8-1.4,3.3-3.1,4.5-5C80,50.3,80,48.8,79.2,47.7"/>
	<path fill="#292929" d="M87.7,36.1V20.2H92l1-6.1h-5.2v-2.2c0-2.3,1-3.4,2.9-3.4c0.7,0,1.4,0.2,2,0.5H93l1-6.2c-1.6-0.7-3.3-1-5.1-0.9
		c-2.5-0.1-4.9,0.8-6.6,2.6c-1.7,1.9-2.6,4.5-2.4,7v2.6h-3.5v6.1h3.5v15.9H87.7z M70.6,36.1V20.2h6.1l0-6.1h-6.1v-2.2
		c0-2.3,1-3.4,2.9-3.4c0.7,0,1.4,0.2,2,0.5h0.3l1-6.2c-1.6-0.7-3.3-1-5.1-0.9c-2.5-0.1-4.9,0.8-6.6,2.6c-1.7,1.9-2.6,4.5-2.4,7v2.6
		h-3.9v6.1h3.9v15.9H70.6z M45.8,27.3l3.5-0.3v0.5c0,1-0.4,2-1.1,2.6c-0.8,0.7-1.9,1.1-2.9,1c-1.4,0-2.1-0.6-2.1-1.8
		C43.1,28.2,44,27.5,45.8,27.3 M47,35.5c1.2-0.5,2.2-1.5,2.8-2.6h0.3c0.1,1.1,0.3,2.2,0.8,3.2h7v-0.3c-0.4-0.8-0.6-1.6-0.8-2.5
		c-0.2-1.1-0.3-2.3-0.3-3.4v-6.8c0-6.3-3.2-9.5-9.7-9.5c-2.8,0-5.5,0.5-8.1,1.6l-1.1,6.2h0.3c1.1-0.6,2.2-1,3.4-1.2
		c1.3-0.3,2.7-0.4,4-0.5c1-0.1,2,0.2,2.8,0.7c0.6,0.5,1,1.4,0.9,2.2v0.2L44,23.2c-5.5,0.5-8.2,2.8-8.2,6.9c-0.1,1.7,0.6,3.4,1.8,4.6
		c1.4,1.2,3.1,1.8,4.9,1.7C44.1,36.5,45.6,36.2,47,35.5 M17.6,25.3h0.3l3.5,10.9h7.9c1.6-3.3,2.8-6.8,3.8-10.4
		c1.1-3.8,1.8-7.7,2.3-11.6h-7.8c-0.1,2.4-0.4,4.7-0.7,7.1c-0.4,2.6-1,5.2-1.7,7.8h-0.3l-4.4-14.4H15L10.6,29h-0.3
		c-0.7-2.6-1.3-5.2-1.7-7.8c-0.4-2.3-0.6-4.7-0.7-7.1H0c0.5,3.9,1.2,7.8,2.3,11.6c1,3.6,2.2,7,3.8,10.4h8L17.6,25.3z"/>
</g>
</svg>